<svg width="41" height="41" viewBox="0 0 41 41" fill="none" xmlns="http://www.w3.org/2000/svg">
<g clip-path="url(#clip0_217_11)">
<rect x="0.5" y="0.5" width="40" height="40" rx="20" fill="white"/>
<path d="M15.3936 10.3431C15.1899 10.4157 15.0832 10.5028 14.8552 10.7544C14.4963 11.1511 14.409 11.2624 14.181 11.635C14.0985 11.7753 13.7978 11.9446 13.468 12.0463C13.3467 12.0801 13.0848 12.2059 12.8859 12.3172C12.2748 12.6656 11.6491 12.9123 10.0727 13.4349C9.47127 13.6381 8.87468 13.8607 8.73886 13.9333C8.22472 14.2236 7.9143 14.6784 7.69118 15.4767C7.59902 15.8009 7.58447 15.9848 7.58447 16.6138C7.58447 17.2525 7.60387 17.4508 7.71058 17.9299C8.11316 19.6959 8.94258 21.3797 9.60708 21.7668C9.81565 21.8877 10.0873 21.9845 10.485 22.0813C10.8924 22.178 12.6628 22.149 13.4777 22.0329C15.2384 21.7861 15.3548 21.7668 15.7186 21.5974C15.9611 21.4813 16.2376 21.4184 16.5965 21.399C16.6401 21.3942 16.8536 21.9313 16.8584 22.0668C16.8633 22.0958 16.8342 22.1539 16.8002 22.1877C16.6401 22.3426 16.3782 22.778 16.3055 23.0054C16.2424 23.1845 16.2279 23.349 16.2424 23.5909C16.2715 23.9731 16.3734 24.1376 16.5577 24.0892C16.6207 24.0747 16.6692 24.0844 16.6692 24.1086C16.6692 24.1909 16.8196 24.307 16.9312 24.307C17.033 24.307 17.0427 24.3457 17.1203 24.8537C17.2222 25.5263 17.2755 25.6666 17.4696 25.7972C17.6587 25.9327 17.7751 25.9327 17.9109 25.8021L18.0177 25.7005L18.1147 25.9134C18.168 26.0246 18.2747 26.1843 18.3572 26.2617C18.5075 26.402 18.5851 26.4069 18.881 26.315C18.9635 26.2908 18.9926 26.3053 19.012 26.3972C19.0508 26.5472 19.7444 27.8294 19.9918 28.202C20.2682 28.6229 21.1413 29.4696 21.5439 29.7067C22.058 30.0116 22.2714 30.1083 22.7274 30.2583C23.8236 30.6212 25.1768 30.5583 26.2779 30.0938C26.4816 30.0067 26.6513 29.8519 26.7095 29.6971C26.7532 29.5809 26.7677 29.5809 27.3498 29.5809C28.3441 29.5761 28.9504 29.3632 29.6392 28.7777L29.9981 28.4729L30.3764 28.6665C30.779 28.8745 31.0458 28.9035 31.1428 28.7487C31.2107 28.6374 30.9973 28.41 30.6481 28.2358C30.5025 28.1633 30.3716 28.0762 30.3619 28.0471C30.3473 28.0133 30.4201 27.8633 30.5171 27.7133C30.813 27.273 31.1234 26.6198 31.1234 26.4408C31.1234 26.3246 31.0797 26.2375 30.9585 26.1166C30.7305 25.8892 30.6626 25.9037 30.5705 26.1988C30.3716 26.8036 29.8817 27.573 29.3821 28.0568C28.6594 28.7584 28.0822 29.0003 27.1461 28.9955C26.5155 28.9955 26.21 28.9471 26.0402 28.8213C25.8025 28.6519 25.4096 28.0762 25.2399 27.6504C24.9537 26.9536 24.9392 26.8472 24.9392 25.7101L24.944 24.6699L25.1671 23.7989C25.4872 22.5506 25.5163 22.2264 25.3029 22.2264C25.1623 22.2264 25.041 22.42 24.8276 22.9958C24.4202 24.0796 24.2407 25.3085 24.3377 26.3391C24.3959 26.9778 24.4687 27.273 24.716 27.8391C24.8227 28.0907 24.9003 28.3036 24.8906 28.3181C24.8761 28.3278 24.6627 28.3423 24.4202 28.3423C23.9109 28.3471 23.5907 28.2552 22.9214 27.931C22.708 27.8294 22.5237 27.7423 22.5091 27.7423C22.4315 27.7423 21.7427 27.2246 21.6748 27.1181C21.6312 27.0456 21.3693 26.7649 21.0831 26.4843C20.8018 26.2037 20.438 25.8021 20.2731 25.5892C20.113 25.3763 19.8802 25.1005 19.7541 24.9747L19.5261 24.7473L19.5843 24.5537C19.6231 24.4183 19.6716 24.3554 19.7298 24.3554C19.7735 24.3554 20.0888 24.3021 20.4234 24.2344C20.7581 24.1667 21.0443 24.1134 21.054 24.1134C21.1073 24.1134 21.4372 23.736 21.5148 23.5812C21.5633 23.4893 21.7282 23.0974 21.8786 22.7103C22.0289 22.3232 22.1744 21.9603 22.1987 21.8974C22.2714 21.7232 22.2569 21.5248 22.1599 21.4378C22.0532 21.341 21.7961 21.3313 21.7282 21.4136C21.6991 21.4474 21.6069 21.7039 21.5196 21.9845C21.4323 22.2651 21.3256 22.599 21.2723 22.7345C21.2238 22.8651 21.1365 23.1216 21.0734 23.3054L20.9618 23.6296L20.7581 23.6006C20.6126 23.5812 20.4089 23.6102 20.0063 23.7167C19.7056 23.7989 19.3952 23.8618 19.3127 23.857C19.172 23.8473 19.1672 23.857 19.0023 24.3554C18.6676 25.3666 18.5415 25.7101 18.5075 25.7101C18.4687 25.7101 18.3184 25.294 18.1729 24.7908C18.0128 24.2392 17.8818 24.1376 17.8818 24.5586C17.8818 24.8102 17.7945 25.1295 17.7266 25.1295C17.6587 25.1295 17.6296 24.7812 17.649 24.1763C17.6684 23.6199 17.6781 23.5619 17.7703 23.499C17.8285 23.4602 17.9352 23.3732 18.0128 23.3103C18.3717 22.9909 18.6676 22.9038 19.4679 22.8651C19.8462 22.8458 20.1615 22.8216 20.1712 22.807C20.1809 22.7925 20.2149 22.7441 20.2537 22.7006C20.2973 22.6425 20.3022 22.5942 20.2634 22.5216C20.1955 22.3958 20.2682 22.0281 20.4622 21.5636C20.5787 21.2829 20.5932 21.1958 20.5496 21.1184C20.3604 20.7652 19.9142 21.3361 19.8268 22.0474L19.7977 22.299L19.2399 22.3329C18.9344 22.3474 18.6045 22.3861 18.5124 22.4151C18.4202 22.4442 18.3378 22.4684 18.3329 22.4684C18.3281 22.4684 18.2796 22.3764 18.2311 22.2603C18.1341 22.0474 17.6199 21.2829 17.5423 21.2345C17.4356 21.1716 17.5132 21.1184 17.9643 20.9491C18.7743 20.6394 19.3903 20.3152 19.691 20.0491C20.0306 19.7443 20.0742 19.662 20.2052 19.1104C20.4089 18.2492 20.2828 17.5573 19.8268 17.0831C19.6425 16.8896 19.3952 16.7299 19.3467 16.7783C19.3176 16.8122 19.4243 17.1896 19.5843 17.6057C19.7929 18.1573 19.7007 18.975 19.3806 19.4443C19.2691 19.5991 18.978 19.8362 18.7064 19.9862C18.1438 20.3007 16.5431 20.8329 15.9174 20.92C15.704 20.9491 15.3645 21.0023 15.1656 21.041C13.4971 21.3652 11.0573 21.5394 10.2231 21.399C9.75745 21.3216 9.60223 21.2152 9.31121 20.77C9.17055 20.562 9.05414 20.3685 9.05414 20.3394C9.05414 20.3152 9.1463 20.2717 9.26271 20.2427C9.37426 20.2136 9.57798 20.1604 9.70894 20.1217C9.84475 20.083 10.0824 20.0394 10.2425 20.0249C10.519 19.991 10.5384 19.9959 10.5917 20.1023C10.6839 20.3007 10.9991 20.6297 11.0962 20.6297C11.2271 20.6297 11.3435 20.4217 11.3726 20.1459C11.392 19.9185 11.4017 19.904 11.5715 19.8556C11.8771 19.7733 11.9256 19.7927 12.1293 20.1023C12.3379 20.4314 12.4785 20.5426 12.6289 20.5039C12.7598 20.4701 12.9247 20.1507 12.9636 19.8411C12.983 19.7153 13.0121 19.5991 13.0315 19.5895C13.0509 19.5749 13.2109 19.5362 13.3855 19.4975L13.7057 19.4346L13.9773 19.6862C14.1276 19.8265 14.3071 19.9572 14.375 19.9717C14.5933 20.0298 14.7436 19.812 14.797 19.3572C14.8309 19.1104 14.8601 19.0524 15.0638 18.8492C15.2432 18.6701 15.3208 18.5395 15.4227 18.2347C15.6943 17.4508 15.7428 17.3831 16.1163 17.2186C16.2618 17.1557 16.3928 17.0638 16.4122 17.0154C16.4316 16.967 16.4752 16.8993 16.5092 16.8654C16.7177 16.6525 16.0775 16.4154 15.7234 16.5751C15.5828 16.638 15.5634 16.7106 15.6895 16.7106C15.738 16.7106 15.8301 16.7638 15.8883 16.8267L15.995 16.9428L15.8592 16.9912C15.5634 17.0928 15.3063 17.4508 15.0007 18.2105C14.8552 18.5685 14.7097 18.7427 14.5884 18.7088C14.5302 18.6943 14.4914 18.7185 14.4769 18.7766C14.4575 18.8395 14.3314 18.9024 14.0209 19.004C13.7833 19.0766 13.5359 19.154 13.468 19.1782C13.2061 19.2653 13.0606 19.2798 12.9199 19.2217C12.7938 19.1685 12.7695 19.1733 12.6968 19.2653C12.5707 19.4249 11.4987 19.6572 10.0727 19.8314C9.73804 19.8701 9.35971 19.9378 9.22875 19.9765C9.05414 20.0298 8.97168 20.0346 8.92803 19.9959C8.82617 19.9136 8.44784 18.8879 8.27808 18.2347C8.13257 17.6783 8.08891 16.4251 8.20047 15.9848C8.36053 15.3703 8.5691 14.9493 8.83587 14.7123C9.00079 14.5623 9.57798 14.3107 10.2425 14.0929C11.3775 13.7252 12.2069 13.3817 12.4252 13.1833C12.4785 13.1349 12.721 13.0091 12.9587 12.9075C13.2012 12.8107 13.4922 12.6656 13.6135 12.593C13.7299 12.5204 13.8415 12.4672 13.8609 12.4817C13.8754 12.4914 13.8609 12.6172 13.8172 12.7623C13.7493 13.0188 13.759 13.1785 13.8512 13.1785C14.0112 13.1785 14.3265 12.7091 14.5399 12.1382C14.6418 11.8672 15.0056 11.3592 15.3548 10.9963C15.6749 10.6721 16.0387 10.6866 16.645 11.0544C17.1058 11.3302 17.4647 11.6205 17.6199 11.8334C17.7897 12.0704 17.8964 12.1092 18.0322 11.9882C18.1923 11.843 18.1389 11.6398 17.8624 11.3495C17.7363 11.2189 17.7266 11.185 17.7848 11.1463C17.8236 11.1221 17.9109 11.0979 17.9788 11.0979C18.0468 11.0979 18.1971 11.064 18.3184 11.0205C18.4445 10.9769 18.6142 10.9528 18.721 10.9673C18.9926 11.006 19.628 11.4076 20.0548 11.8237C20.5399 12.2882 20.6029 12.3704 21.0879 13.0865C21.7088 14.0107 22.1744 15.1477 22.4218 16.3477C22.5285 16.8605 22.5382 16.996 22.5091 17.5428C22.48 18.1234 22.48 18.1621 22.5819 18.3024C22.6401 18.3847 22.7225 18.4524 22.7613 18.4524C22.8001 18.4524 22.8292 18.4718 22.8292 18.4911C22.8292 18.5589 23.2367 18.6411 23.7508 18.6701C25.5455 18.7766 26.21 19.0088 27.5826 20.0152C28.5042 20.6926 29.484 21.82 30.5074 23.3877C30.6966 23.678 30.7257 23.7022 30.9051 23.7167C31.007 23.7264 31.1476 23.7747 31.2156 23.8231C31.4387 23.978 32.5155 24.4425 32.9665 24.5779C33.3643 24.6941 34.3392 24.757 34.7515 24.6892C35.1977 24.6215 35.8768 24.3409 36.2648 24.0699C36.42 23.9586 36.5655 23.8715 36.5946 23.8715C36.6674 23.8715 37.4725 23.1699 37.8363 22.7925C38.0158 22.599 38.3311 22.2458 38.5348 22.0087C39.0004 21.4668 39.7813 20.6926 40.0578 20.5039C40.1742 20.4265 40.3779 20.2862 40.5089 20.1846C40.6447 20.0878 40.9163 19.9281 41.12 19.8362C42.1386 19.362 42.9292 19.304 43.8751 19.6378C44.2631 19.7733 44.428 19.7007 44.3067 19.4443C44.1952 19.1927 43.4482 18.9846 42.5703 18.9508C41.9931 18.9314 41.9446 18.9363 41.5032 19.0814C40.6302 19.3669 39.8444 19.8072 39.2429 20.3491C38.8501 20.7023 38.6512 20.9104 37.9042 21.7426C36.8566 22.9087 36.0853 23.528 35.0765 24.0022L34.6884 24.1812L33.9512 24.1763C33.1072 24.1715 32.9277 24.128 32.0256 23.7167C31.395 23.4312 31.2156 23.3054 31.0361 23.0345C30.9633 22.9232 30.7839 22.6667 30.6335 22.4684C30.488 22.27 30.2406 21.9361 30.0854 21.7329C29.6731 21.1813 28.7564 20.2475 28.2471 19.8652C26.6368 18.6605 25.6425 18.2879 23.6781 18.1718C23.2561 18.1427 23.1494 18.1234 23.1591 18.0702C23.1688 18.0315 23.1833 17.6783 23.1979 17.2863C23.2173 16.6331 23.2124 16.5315 23.096 16.0719C22.7904 14.8864 22.3442 13.8558 21.7427 12.9704C21.0491 11.9495 20.438 11.335 19.628 10.8511C19.0217 10.4883 18.9198 10.4544 18.59 10.4834C18.3281 10.5076 17.6975 10.6479 17.3386 10.7544C17.2367 10.7882 17.1203 10.7544 16.7323 10.5608C16.1842 10.2899 15.7331 10.2173 15.3936 10.3431ZM14.3896 19.4201C14.3896 19.5266 14.3799 19.6136 14.3653 19.6136C14.3508 19.6136 14.2829 19.5556 14.2198 19.4782L14.1082 19.3475L14.2101 19.2895C14.3702 19.1975 14.3896 19.2121 14.3896 19.4201ZM12.624 19.783C12.5804 19.9475 12.5028 20.1459 12.4785 20.1459C12.4494 20.1459 12.2554 19.812 12.2554 19.7588C12.2554 19.7201 12.3767 19.6814 12.5658 19.6669C12.6386 19.662 12.6483 19.6862 12.624 19.783ZM11.0768 20.1265C11.0622 20.2233 11.0331 20.3152 11.0185 20.3297C10.9894 20.3588 10.7081 20.0539 10.7033 19.9862C10.7033 19.9669 10.7954 19.9523 10.9021 19.9523H11.1059L11.0768 20.1265ZM17.5908 22.178C17.5908 22.1974 17.6684 22.3135 17.7654 22.4393C17.9061 22.6232 17.9255 22.6812 17.8818 22.7345C17.78 22.8554 17.7363 22.8167 17.5908 22.4877C17.4259 22.1248 17.4162 22.0716 17.5181 22.1103C17.5569 22.1297 17.5908 22.1587 17.5908 22.178ZM17.0573 22.6232C17.0573 22.6522 17.0282 22.7006 16.9942 22.7296C16.9118 22.7974 16.7177 23.2522 16.7177 23.3828C16.7177 23.4361 16.6983 23.4941 16.6692 23.5086C16.6062 23.5473 16.6062 23.2377 16.6741 23.0635C16.8148 22.6861 17.0573 22.4103 17.0573 22.6232ZM17.2949 22.9812C17.4259 23.1457 17.4259 23.1699 17.261 23.4844C17.0718 23.8473 16.9894 23.8618 17.0282 23.528C17.0718 23.0683 17.1155 22.8554 17.1543 22.8554C17.1785 22.8554 17.2416 22.9135 17.2949 22.9812ZM19.7735 26.0246C20.2003 26.673 20.5156 27.0456 20.9473 27.4278C21.7427 28.1245 23.0427 28.831 23.9691 29.0729C24.4444 29.1939 24.8082 29.2132 25.172 29.1261L25.5018 29.0487L25.7637 29.2471C25.9092 29.3584 26.0305 29.4648 26.0305 29.4842C26.0305 29.5422 25.3223 29.76 24.7694 29.8761C24.3717 29.9583 24.1679 29.9729 23.8478 29.9487C22.3781 29.8471 21.0928 29.039 20.3264 27.7375C20.1615 27.4617 19.8948 27.002 19.725 26.7165C19.5601 26.4311 19.3612 26.1166 19.2885 26.0246C19.1526 25.8553 19.1526 25.8456 19.2254 25.6714C19.3273 25.4295 19.3418 25.4053 19.3855 25.4537C19.4049 25.4731 19.5795 25.7295 19.7735 26.0246Z" fill="black"/>
<path d="M16.1111 12.5068C15.6843 12.5891 15.1507 12.8891 14.8015 13.2471C14.525 13.5277 14.2389 13.9148 14.2583 13.9729C14.2777 14.0261 14.4377 14.0358 14.5832 13.9971C14.6366 13.9826 14.6608 14.0213 14.6705 14.1229C14.6948 14.4229 14.8452 14.7954 15.0052 14.9744C15.2041 15.197 15.4612 15.2793 15.8298 15.2502C16.2712 15.2115 16.2275 15.1002 15.7522 15.047C15.4321 15.0083 15.1992 14.8825 15.1022 14.6938C14.9955 14.4906 14.8597 14.0455 14.8937 14.0164C14.9082 14.0019 15.0198 14.06 15.1507 14.1422C15.6115 14.4471 16.3633 14.5729 16.8193 14.4132C17.2655 14.2535 17.6535 13.8229 17.6341 13.5084C17.6244 13.3923 17.6487 13.3003 17.702 13.2374C17.8669 13.0584 17.7893 12.9423 17.3722 12.7294C16.9599 12.5262 16.4652 12.4342 16.1111 12.5068ZM15.9413 13.46C16.0481 13.6245 16.1548 13.76 16.1839 13.76C16.2081 13.76 16.2324 13.7842 16.2324 13.8132C16.2324 13.9003 15.694 13.8277 15.369 13.7019C15.2186 13.639 15.0925 13.5664 15.0974 13.5423C15.0974 13.4939 15.7037 13.1213 15.7328 13.1455C15.7376 13.1552 15.8346 13.2955 15.9413 13.46Z" fill="black"/>
<path d="M9.87385 14.941C9.42276 15.2749 8.92802 16.1797 9.19479 16.1797C9.21904 16.1797 9.24815 16.1313 9.25785 16.0684C9.27725 15.9426 9.80109 15.6329 9.9466 15.6716C10.1746 15.7249 10.5577 15.3813 10.5577 15.1249C10.5577 14.9846 10.4074 14.8297 10.2425 14.8007C10.1309 14.7814 10.0485 14.8104 9.87385 14.941Z" fill="black"/>
</g>
<defs>
<clipPath id="clip0_217_11">
<rect x="0.5" y="0.5" width="40" height="40" rx="20" fill="white"/>
</clipPath>
</defs>
</svg>
